<svg width="38" height="30" viewBox="0 0 38 30" fill="none" xmlns="http://www.w3.org/2000/svg">
<g clip-path="url(#clip0_2350_70)">
<path d="M34.2332 2.31429L34.868 2.3122L35.2561 2.37565L35.6267 2.48771L35.8916 2.6163L36.1744 2.80957L36.2981 2.90626L36.422 3.03532L36.5812 3.21281L36.7762 3.51965L36.9363 3.95606L37.0257 4.3118L37.0275 4.86202L36.9236 5.46113L36.5763 7.08059L36.2637 8.50574L36.0726 9.39644L35.76 10.8378L35.4994 12.02L35.239 13.2346L34.9611 14.514L34.6484 15.9553L34.3879 17.1375L34.1274 18.3521L33.8495 19.6315L33.5368 21.0728L33.2763 22.255L33.0158 23.4696L32.7379 24.749L32.4253 26.1904L32.1647 27.3726L32.0431 27.9394L31.9038 28.4577L31.7639 28.8142L31.6237 29.0736L31.4307 29.3655L31.2198 29.5766L31.0968 29.7065L30.9034 29.8689L30.6395 30.0316L30.2697 30.1947L29.935 30.2929L29.7413 30.3421L29.4416 30.3592L29.1771 30.3601L28.7184 30.2969L28.3479 30.201L28.0654 30.0887L27.7652 29.944L27.5002 29.783L27.2528 29.6382L27.0584 29.4932L26.811 29.316L26.5812 29.1387L26.3337 28.9615L26.1393 28.8165L25.8565 28.6071L25.6091 28.4299L25.3086 28.2043L25.0612 28.0271L24.8667 27.8821L24.3011 27.4632L24.1244 27.3343L23.8416 27.1249L23.5941 26.9477L23.3997 26.8027L23.1169 26.5932L22.8695 26.416L22.6751 26.271L22.1095 25.8521L21.862 25.6749L21.5969 25.4816L21.5264 25.498L21.3506 25.6442L21.0517 25.9042L20.911 26.0179L20.7 26.1966L20.4187 26.4403L20.155 26.6677L20.0143 26.7815L19.8033 26.9602L19.5044 27.2201L19.2759 27.415L18.9242 27.7075L18.6253 27.9674L18.3616 28.1948L18.2209 28.3086L18.0099 28.4873L17.7462 28.7147L17.5351 28.8773L17.3416 29.0235L17.0777 29.2024L16.6024 29.4306L16.1269 29.5778L15.9859 29.6106L15.5276 29.6445L15.3689 29.645L14.8221 29.5659L14.3102 29.4057L14.0629 29.2771L13.8509 29.1483L13.6741 29.0033L13.4443 28.8098L13.285 28.6323L13.0902 28.374L12.9484 28.1479L12.7353 27.6793L12.5575 27.2268L12.2373 26.3863L12.0239 25.8368L11.7216 25.0448L11.4726 24.3983L11.1169 23.4771L10.7968 22.6366L10.4945 21.8608L10.1743 21.0203L10.0499 20.7133L9.87203 20.2445L9.58747 19.501L9.4096 19.0323L9.26738 18.6768L8.86147 18.5648L7.23796 18.1494L3.46151 17.1747L2.82618 16.9988L2.31428 16.8224L1.97874 16.6617L1.78442 16.5491L1.55462 16.3718L1.41319 16.259L1.20081 16.0169L1.07659 15.7746L0.987574 15.516L0.951724 15.3381L0.950604 14.9982L1.02028 14.7391L1.19548 14.3986L1.31837 14.2364L1.45889 14.0741L1.59957 13.9604L1.77546 13.8303L2.14503 13.6187L2.58519 13.4231L2.91976 13.2925L5.45581 12.3941L7.16412 11.7897L12.0953 10.0418L13.8036 9.43743L15.6 8.80037L17.5372 8.1143L18.048 7.9346L18.7348 7.68959L19.7034 7.34656L22.3275 6.41547L25.0045 5.46803L28.5972 4.19392L31.0452 3.32815L31.5559 3.14845L32.2428 2.90344L33.1233 2.59306L33.4228 2.49497L33.8455 2.3803L34.2332 2.31429ZM34.4336 4.2556L34.0284 4.35404L33.0069 4.71343L32.3201 4.95844L31.2986 5.31783L30.6117 5.56284L29.8192 5.84057L29.1324 6.08558L27.4241 6.68998L25.6277 7.32704L23.7785 7.98046L20.5028 9.14025L18.7945 9.74465L16.2584 10.6431L15.237 11.0025L14.5501 11.2475L12.3839 12.0152L8.28046 13.469L5.60353 14.4165L5.09279 14.5962L4.40595 14.8412L3.6839 15.1025L3.50774 15.1516L3.54311 15.1839L3.8607 15.2476L9.93131 16.8297L10.0898 16.7806L10.3715 16.6502L10.7764 16.4547L11.0405 16.3244L11.7094 16.0147L12.0439 15.8517L12.6073 15.591L12.9418 15.428L13.3291 15.2487L13.6635 15.0858L14.1917 14.8413L14.5262 14.6784L14.9839 14.4665L15.3184 14.3036L15.7761 14.0917L16.1106 13.9287L16.4979 13.7495L16.8324 13.5865L17.4661 13.2931L17.8006 13.1302L18.1879 12.9509L18.5224 12.788L18.9801 12.5761L19.3146 12.4132L19.6667 12.2502L20.0012 12.0872L20.6349 11.7938L20.9694 11.6309L21.3567 11.4516L21.6912 11.2887L22.2546 11.0279L22.589 10.865L22.9763 10.6857L23.3108 10.5227L23.839 10.2783L24.1734 10.1153L24.5255 9.95234L24.86 9.7894L25.4234 9.52862L25.7579 9.36569L26.1452 9.1864L26.4796 9.02346L27.0078 8.77898L27.3423 8.61604L27.6944 8.45305L28.0288 8.29012L28.293 8.20833L28.3811 8.19186L28.6985 8.19081L28.9103 8.23866L29.1222 8.33507L29.299 8.48013L29.4228 8.60919L29.5115 8.77073L29.565 8.96475L29.5832 9.12652L29.5837 9.28835L29.4788 9.56381L29.3033 9.80713L29.11 10.002L28.9519 10.1643L28.6706 10.4242L28.5476 10.554L28.3718 10.7165L28.2488 10.8463L28.0028 11.0899L27.9325 11.1548L27.9326 11.1872L27.8973 11.1873L27.7743 11.3172L27.581 11.4959L27.5811 11.5282L27.5458 11.5283L27.4228 11.6582L27.247 11.8206L27.124 11.9505L26.878 12.194L26.5968 12.4701L26.421 12.6325L26.298 12.7624L26.1222 12.9248L25.9992 13.0546L25.472 13.5742L25.2962 13.7366L25.1732 13.8665L24.9974 14.0289L24.8744 14.1588L24.3472 14.6784L24.1714 14.8408L24.0484 14.9707L23.855 15.1493L23.732 15.2792L23.486 15.5228L23.2224 15.7826L23.0466 15.945L22.9236 16.0748L22.7302 16.2535L22.6072 16.3834L22.3612 16.6269L22.0975 16.8867L21.9218 17.0491L21.7988 17.179L21.6054 17.3576L21.4824 17.4875L20.9727 17.9909L20.797 18.1533L20.674 18.2832L20.4806 18.4618L20.3576 18.5917L19.8479 19.095L19.6721 19.2574L19.5492 19.3873L19.3558 19.566L19.2328 19.6958L19.1097 19.8095L18.9867 19.9394L18.7055 20.2154L18.5473 20.3616L18.4243 20.4915L18.3364 20.5565L18.3542 20.605L18.5309 20.7339L18.8137 20.9433L19.0612 21.1205L19.2556 21.2655L19.5384 21.475L19.7151 21.6039L19.9626 21.7811L20.2454 21.9905L20.4221 22.1194L20.6695 22.2966L20.8993 22.4738L21.0584 22.5866L21.3235 22.7799L21.571 22.9571L21.7654 23.1021L22.0305 23.2954L22.2426 23.4404L22.5254 23.6498L22.7728 23.827L22.9672 23.9721L23.2147 24.1493L23.4445 24.3265L23.6742 24.4876L24.0631 24.7776L24.3459 24.9871L24.5226 25.1159L24.77 25.2931L24.9822 25.4543L25.1589 25.5831L25.4063 25.7603L25.6184 25.9215L25.8482 26.0826L26.0603 26.2437L26.237 26.3726L26.5198 26.582L26.7673 26.7592L27.0678 26.9848L27.3152 27.162L27.5273 27.3231L27.7041 27.452L27.9515 27.6292L28.1813 27.8065L28.411 27.9675L28.6408 28.1448L28.9058 28.3058L29.1177 28.386L29.2236 28.418L29.4704 28.401L29.6464 28.3033L29.7693 28.1411L29.8568 27.9628L29.9616 27.6388L30.2569 26.2946L30.5695 24.8533L31.1079 22.3593L31.4379 20.8532L31.7506 19.4118L32.2889 16.9179L32.619 15.4118L32.9316 13.9704L33.4005 11.8003L33.7306 10.2942L34.0432 8.8529L34.5121 6.68281L34.8421 5.1767L34.9112 4.73952L34.9105 4.52915L34.8747 4.36743L34.8392 4.28663L34.7509 4.25456L34.4336 4.2556ZM23.582 12.5609L23.5645 12.5934L23.6173 12.577L23.582 12.5609ZM23.5292 12.5935L23.2475 12.7239L22.6314 13.0172L22.1032 13.2617L21.7688 13.4246L21.2758 13.6528L20.9414 13.8157L20.4836 14.0276L20.1491 14.1905L19.621 14.435L19.2865 14.598L18.9344 14.761L18.6 14.9239L18.0718 15.1684L17.7373 15.3313L17.2444 15.5595L16.9099 15.7224L16.3113 15.9995L15.9769 16.1625L15.5896 16.3417L15.2551 16.5047L14.7621 16.7329L14.4277 16.8958L13.9347 17.124L13.6003 17.2869L13.0017 17.564L12.6672 17.7269L12.3151 17.8899L11.9806 18.0529L11.3997 18.3299L11.3822 18.3623L11.7023 19.2028L12.0046 19.9786L12.3248 20.819L12.5382 21.3686L12.8049 22.0636L13.1072 22.8394L13.4807 23.8091L13.7475 24.5041L14.1031 25.4254L14.2455 25.8133L14.281 25.8941L14.3162 25.8778L14.595 24.8573L14.9084 23.6749L15.3438 22.039L15.6573 20.8566L15.7793 20.4193L15.8668 20.2086L16.06 19.9814L16.306 19.7378L16.4115 19.6404L16.4114 19.608L16.4467 19.6079L16.5696 19.478L16.7982 19.2669L16.7981 19.2345L16.8333 19.2344L16.9563 19.1046L17.2375 18.8285L17.4308 18.6337L17.589 18.4875L17.712 18.3576L17.9933 18.0978L18.1163 17.9679L18.3799 17.7081L18.5381 17.5458L18.7314 17.3671L18.7313 17.3347L18.7666 17.3346L18.8896 17.2048L19.1181 16.9936L19.2411 16.8638L19.329 16.7826L19.3289 16.7502L19.3641 16.7501L19.4871 16.6202L19.698 16.4091L19.8914 16.2305L20.0144 16.1006L20.2253 15.9057L20.3483 15.7758L20.4538 15.6784L20.4537 15.646L20.489 15.6459L20.6119 15.516L20.858 15.2725L21.0162 15.1263L21.1392 14.9964L21.2974 14.8503L21.4204 14.7204L21.6138 14.5418L21.7368 14.4119L21.9828 14.1683L22.141 14.0222L22.264 13.8923L22.4222 13.7461L22.5452 13.6162L22.7386 13.4376L22.8616 13.3077L23.0725 13.0967L23.2131 12.9667L23.3361 12.8369L23.4943 12.6907L23.4942 12.6583L23.5294 12.6582L23.5645 12.5934L23.5292 12.5935ZM17.408 22.4044L17.1293 23.4411L16.7985 24.7044L16.5546 25.6115L16.2063 26.9397L16.0844 27.3932L16.0845 27.4256L16.1549 27.393L16.4011 27.1979L16.6649 26.9705L16.8407 26.8243L17.122 26.5806L17.4737 26.2882L17.7023 26.0932L17.966 25.8658L18.3177 25.5733L18.4583 25.4596L18.599 25.3296L18.7397 25.2159L18.9858 25.0047L19.1265 24.891L19.3375 24.7123L19.6364 24.4523L19.8122 24.3061L19.9001 24.2411L19.9 24.2087L19.5112 23.9187L19.2107 23.6931L18.9633 23.5159L18.7688 23.3709L18.486 23.1615L18.2386 22.9843L18.0442 22.8393L17.7614 22.6298L17.5846 22.5009L17.4609 22.4043L17.408 22.4044Z" fill="#FCB42C"/>
</g>
<defs>
<clipPath id="clip0_2350_70">
<rect width="36.1101" height="29.8812" fill="white" transform="translate(0.901611 0.118896) rotate(-0.188756)"/>
</clipPath>
</defs>
</svg>
